<svg width="150" height="150" viewBox="0 0 150 150" fill="none" xmlns="http://www.w3.org/2000/svg">
    <path fill-rule="evenodd" clip-rule="evenodd" d="M46.8722 75C46.8722 71.8923 47.6642 68.5281 48.5165 66.0917C49.203 64.123 51.0585 60.1026 52.4389 59.1748L59.6274 66.3482C60.5552 67.2458 61.2416 68.0227 62.109 68.8449L71.0776 77.7457C71.485 78.1454 71.4472 78.0851 71.8093 78.4849C72.5033 79.2543 72.1865 78.9525 72.986 79.6465C73.2877 79.9105 73.3028 79.9256 73.5819 80.2198L75.0226 81.7133C75.0603 81.7585 75.1207 81.8189 75.1584 81.8641L77.8211 84.4815C78.4019 85.002 78.4698 85.085 78.9902 85.6507L81.6077 88.3134C81.6529 88.3511 81.7208 88.4114 81.7661 88.4492C81.8038 88.4869 81.8717 88.5472 81.9169 88.5849C81.9622 88.6302 82.0225 88.683 82.0678 88.7283C82.3469 88.9923 82.4072 89.0677 82.6486 89.3166L86.0128 92.6883C87.2272 93.8499 90.5235 96.8747 90.8177 98.1419C89.8069 98.4135 88.5623 99.4016 87.5968 99.907C79.8351 103.98 71.5151 104.025 63.4894 100.571C57.455 97.976 52.024 92.545 49.4217 86.5106C48.1318 83.501 46.8722 79.1486 46.8722 75ZM6.73589 0H6.88675L150 143.257C149.268 144.343 144.056 149.706 142.962 150C142.615 148.688 141.31 147.903 140.405 146.99L125.342 131.882C124.075 130.713 121.231 131.248 118.063 131.248H30.7603C26.1138 131.248 13.0041 131.731 9.474 130.562C4.51071 128.902 0 123.547 0 118.357V31.6429C0 29.9909 0.693956 27.9694 1.25968 26.7475C2.08187 24.9975 2.67776 24.477 3.85447 23.1872C4.02042 23.0061 4.09585 22.9081 4.27688 22.727C4.35231 22.6516 4.6842 22.3424 4.72946 22.3046C6.48698 20.7131 9.56452 19.0461 12.0084 19.0461C11.6766 17.7864 10.0624 16.6549 9.1572 15.7498C7.21865 13.8112 0.844815 7.70894 0.067887 6.51715L6.73589 0ZM37.4962 73.2425C37.4962 80.9439 37.9941 84.2779 41.0188 91.1043C46.2386 102.894 60.08 112.496 73.2425 112.496C81.3587 112.496 86.7294 111.463 93.6237 107.397C95.1851 106.477 97.101 104.863 98.1419 104.584C98.3682 105.444 98.6699 105.398 99.4846 106.175L112.029 118.825C113.462 120.348 113.748 120.243 114.842 121.872H17.8694C14.128 121.872 9.37594 122.325 9.37594 116.305V33.687C9.37594 27.0341 14.9955 28.1278 20.8036 28.1278C21.671 28.1278 24.2055 31.0243 25.0201 31.8164L33.325 39.9175C35.2107 41.8033 44.5866 50.9152 45.4088 52.1447C44.8959 53.1178 44.6168 53.3516 43.9983 54.2492C43.4552 55.0488 43.1686 55.5391 42.6406 56.4141C41.675 58.0132 40.8529 59.6047 40.174 61.2642C38.8841 64.4247 37.4962 68.8902 37.4962 73.2425ZM38.3788 18.7519C40.883 20.4264 44.4056 25.5708 46.2914 26.0761C47.2569 21.9049 47.189 18.7519 52.4389 18.7519H97.5536C104.191 18.7519 102.14 24.1074 104.214 26.4533C105.806 28.2561 106.681 28.1354 109.864 28.1278H131.542C135.457 28.1278 140.624 27.449 140.624 33.687V116.6C140.624 118.214 140.036 118.561 139.742 119.82L146.41 126.632C147.978 124.346 150 121.955 150 118.357V31.6429C150 29.9909 149.306 27.9694 148.733 26.7475C147.662 24.4544 146.213 22.9986 144.343 21.4749C142.638 20.0795 139.689 18.8499 137.403 18.7443C129.196 18.3672 119.941 18.7519 111.621 18.7519C111.304 14.9728 105.021 9.37594 99.6053 9.37594H50.3872C45.0015 9.37594 39.4046 14.3468 38.3788 18.7519Z" fill="white" />
    <path fill-rule="evenodd" clip-rule="evenodd" d="M60.3515 40.4305L67.7436 47.9735C73.0765 46.7892 76.0409 46.5403 81.7208 47.7698C85.6356 48.6146 89.7616 50.9001 92.4847 53.1178C98.866 58.3149 103.12 66.3406 103.12 74.7058C103.12 77.3836 102.456 80.1368 101.951 82.3243L109.502 89.7164C112.051 84.9945 112.496 78.9224 112.496 73.2425C112.496 54.8527 95.1473 37.4962 76.7575 37.4962C71.0701 37.4962 65.0357 37.9488 60.3515 40.4305ZM121.872 41.5996C121.872 48.69 131.248 48.69 131.248 41.5996C131.248 39.4725 129.211 37.4962 125.976 37.4962C124.143 37.4962 121.872 39.7742 121.872 41.5996Z" fill="white" />
</svg>
